HIERARCHY
ROOT Hips
{
	OFFSET -211.153198 91.653587 -35.738949
	CHANNELS 6 Xposition Yposition Zposition Zrotation Yrotation Xrotation 
	JOINT LeftUpLeg
	{
		OFFSET 0.103455 1.857827 10.548507
		CHANNELS 3 Zrotation Yrotation Xrotation
		JOINT LeftLeg
		{
			OFFSET 43.500000 -0.000031 0.000008
			CHANNELS 3 Zrotation Yrotation Xrotation
			JOINT LeftFoot
			{
				OFFSET 42.372192 0.000011 -0.000014
				CHANNELS 3 Zrotation Yrotation Xrotation
				JOINT LeftToe
				{
					OFFSET 17.299997 -0.000002 0.000013
					CHANNELS 3 Zrotation Yrotation Xrotation
					End Site
					{
						OFFSET 0.000000 0.000000 0.000000
					}
				}
			}
		}
	}
	JOINT RightUpLeg
	{
		OFFSET 0.103457 1.857826 -10.548499
		CHANNELS 3 Zrotation Yrotation Xrotation
		JOINT RightLeg
		{
			OFFSET 43.500046 -0.000019 0.000015
			CHANNELS 3 Zrotation Yrotation Xrotation
			JOINT RightFoot
			{
				OFFSET 42.372261 -0.000004 0.000013
				CHANNELS 3 Zrotation Yrotation Xrotation
				JOINT RightToe
				{
					OFFSET 17.299992 -0.000006 0.000004
					CHANNELS 3 Zrotation Yrotation Xrotation
					End Site
					{
						OFFSET 0.000000 0.000000 0.000000
					}
				}
			}
		}
	}
	JOINT Spine
	{
		OFFSET 6.901968 -2.603730 -0.000002
		CHANNELS 3 Zrotation Yrotation Xrotation
		JOINT Spine1
		{
			OFFSET 12.588100 -0.000001 0.000009
			CHANNELS 3 Zrotation Yrotation Xrotation
			JOINT Spine2
			{
				OFFSET 12.343201 0.000005 -0.000005
				CHANNELS 3 Zrotation Yrotation Xrotation
				JOINT Neck
				{
					OFFSET 25.832893 -0.000008 -0.000006
					CHANNELS 3 Zrotation Yrotation Xrotation
					JOINT Head
					{
						OFFSET 11.766606 0.000005 0.000008
						CHANNELS 3 Zrotation Yrotation Xrotation
						End Site
						{
							OFFSET 0.000000 0.000000 0.000000
						}
					}
				}
				JOINT LeftShoulder
				{
					OFFSET 19.745903 -1.480373 6.000100
					CHANNELS 3 Zrotation Yrotation Xrotation
					JOINT LeftArm
					{
						OFFSET 11.284123 -0.000007 -0.000024
						CHANNELS 3 Zrotation Yrotation Xrotation
						JOINT LeftForeArm
						{
							OFFSET 33.000053 0.000004 0.000036
							CHANNELS 3 Zrotation Yrotation Xrotation
							JOINT LeftHand
							{
								OFFSET 25.200006 0.000021 -0.000003
								CHANNELS 3 Zrotation Yrotation Xrotation
								End Site
								{
									OFFSET 0.000000 0.000000 0.000000
								}
							}
						}
					}
				}
				JOINT RightShoulder
				{
					OFFSET 19.746101 -1.480381 -6.000079
					CHANNELS 3 Zrotation Yrotation Xrotation
					JOINT RightArm
					{
						OFFSET 11.284133 -0.000015 -0.000008
						CHANNELS 3 Zrotation Yrotation Xrotation
						JOINT RightForeArm
						{
							OFFSET 33.000099 0.000016 0.000006
							CHANNELS 3 Zrotation Yrotation Xrotation
							JOINT RightHand
							{
								OFFSET 25.199781 0.000142 0.000425
								CHANNELS 3 Zrotation Yrotation Xrotation
								End Site
								{
									OFFSET 0.000000 0.000000 0.000000
								}
							}
						}
					}
				}
			}
		}
	}
}
MOTION
Frames: 17
Frame Time: 0.033333
-65.504761 88.077881 41.288540 91.985129 4.898969 96.503463 -178.683295 -13.980310 178.414049 -20.377559 -0.406850 -3.322538 79.237994 -1.594301 -15.854870 21.454550 0.003075 -0.000001 -179.846681 20.841194 -164.115608 -26.074628 3.557878 5.492226 78.679142 0.265992 16.872977 21.454558 -0.003109 -0.000018 8.653317 0.644338 0.327603 7.298075 1.266702 0.695119 6.979935 1.271007 0.687464 -11.650652 -8.071813 -8.110310 -16.795705 9.208432 -13.771977 -161.649213 -78.549156 -20.215919 -10.743939 49.821042 21.959789 -24.155459 -11.794391 0.924085 18.164246 8.423465 57.146629 -154.711899 66.985311 27.502861 -16.203388 -34.292819 -12.823508 -33.509960 15.994662 -1.392737 7.729438 5.006597 -4.831763 
-63.468781 88.428543 40.256130 94.076246 4.939548 97.858627 -179.068408 -11.769896 179.447743 -19.836273 -3.011711 -3.103272 78.221478 -1.134566 -13.125106 21.454555 0.003099 0.000001 -178.258840 23.889895 -162.063286 -23.505792 3.263386 5.403063 76.065857 0.905817 17.529839 21.454560 -0.003111 -0.000017 8.787049 -0.010983 0.210002 7.561186 -0.035699 0.418834 7.243104 -0.033035 0.419054 -13.240653 -9.333135 -8.560293 -16.306821 11.311898 -15.388683 -162.522630 -78.230692 -19.330216 -15.014404 49.033655 19.717627 -23.767902 -11.607761 0.906394 18.610607 6.904302 65.062196 -154.865401 65.436621 27.380697 -12.763096 -36.922442 -11.905255 -33.185451 16.835334 -1.439634 7.968221 6.578705 -4.532233 
-61.411621 88.674492 38.902061 95.399165 3.607398 98.434350 178.862683 -9.783909 178.554204 -20.154695 -4.545508 -2.184573 77.892823 -1.137424 -10.611863 21.454555 0.003084 0.000001 -179.147188 26.270992 -160.715021 -21.618522 2.355404 5.130279 72.890570 1.899041 18.418030 21.454560 -0.003113 -0.000018 8.541621 -0.553505 0.311904 7.067843 -1.125017 0.589525 6.749683 -1.121308 0.596319 -12.922509 -10.652857 -9.190033 -15.919443 13.310692 -17.042097 -165.813688 -78.438985 -15.977563 -17.495292 49.367088 18.396443 -24.950259 -12.193616 0.961780 17.849438 4.413197 68.654985 -153.070003 65.333143 29.246795 -8.581384 -42.110257 -10.504625 -32.378092 17.222119 -1.446955 7.768176 7.493980 -4.382305 
-59.584549 88.967667 37.498150 96.116915 2.312907 98.380385 177.127241 -7.300197 -177.219216 -19.493418 -5.593134 -4.811788 77.386836 0.883494 -9.969663 21.454550 0.003086 0.000001 178.796690 27.625506 -160.691197 -20.745009 1.410800 5.943763 69.989201 1.447680 17.399678 21.454555 -0.003117 -0.000018 8.312518 -0.926870 0.453781 6.606043 -1.878069 0.854195 6.287808 -1.872746 0.865525 -12.443463 -12.157180 -9.448706 -15.217907 15.218582 -18.257181 -167.839085 -77.992141 -13.916339 -19.533062 49.593280 17.676842 -27.001599 -13.095910 1.053005 15.641312 2.336496 65.778560 -152.286007 66.401214 30.030563 -3.211846 -47.646758 -9.742717 -32.393176 17.074481 -1.437814 8.414639 7.524924 -4.777072 
-58.068359 89.241982 36.158489 96.396017 1.594223 97.938363 176.044656 -5.035801 -175.834396 -18.985199 -4.704067 -6.247437 76.840202 1.860774 -9.886910 21.454550 0.003084 0.000000 175.987515 27.834194 -163.087255 -22.032875 1.469096 9.571635 69.731300 -2.476258 13.633341 21.454557 -0.003099 -0.000018 8.292294 -1.144861 0.520607 6.563189 -2.317342 0.975837 6.244883 -2.311281 0.989828 -13.314348 -14.327587 -9.011117 -13.828552 17.055505 -18.929188 -166.901546 -76.073909 -14.878508 -21.896314 48.800459 16.635329 -29.368222 -13.762840 1.138183 12.889754 0.546876 58.326496 -152.512004 67.940083 29.754295 1.184797 -52.313331 -10.634965 -31.443998 17.242370 -1.428547 8.193570 5.286436 -4.375473 
-56.954399 89.542374 34.922329 96.233240 1.315506 97.574621 175.628015 -4.497184 -177.418549 -18.024920 -4.653013 -5.766065 75.919670 1.736471 -8.808402 21.454555 0.003103 0.000000 172.603552 26.792406 -165.417715 -26.832963 1.409002 12.068243 73.189486 -5.891887 9.500041 21.454557 -0.003105 -0.000016 8.376010 -1.351583 0.542683 6.729056 -2.732325 1.006379 6.410620 -2.726082 1.022879 -13.448823 -14.508561 -8.958402 -14.370513 17.660060 -19.256948 -167.159796 -74.846019 -14.618493 -23.481135 48.255136 15.188444 -31.836932 -14.164226 1.212556 9.957335 -1.002958 47.923018 -153.355587 67.968790 28.881595 2.765301 -54.498547 -13.369715 -28.776618 16.652527 -1.338141 7.872446 3.134427 -4.848738 
-56.196091 89.785393 33.874611 95.772455 1.431670 97.886480 175.421142 -4.643199 -178.806580 -17.286464 -4.762416 -4.903559 75.023378 1.356402 -7.753983 21.454550 0.003099 -0.000001 169.809663 24.677093 -165.473108 -33.918562 0.393550 11.568332 76.370982 -5.985574 8.486368 21.454562 -0.003115 -0.000018 8.505530 -1.470062 0.341332 6.992845 -2.958043 0.593623 6.674313 -2.954273 0.611495 -12.869196 -13.341970 -8.949247 -15.761712 17.124280 -18.922139 -169.196353 -74.856722 -12.533300 -23.621420 49.216291 13.352663 -34.665560 -14.769618 1.312676 7.891683 -2.387791 37.028641 -153.970099 67.752895 28.251768 2.574392 -56.216610 -16.062807 -25.963723 15.962849 -1.244507 7.531014 1.539204 -8.011583 
-55.661339 90.014999 33.008469 95.003109 1.690036 98.532439 175.219105 -5.096896 179.995579 -16.803447 -4.564165 -3.927582 74.222812 0.833165 -6.969030 21.454555 0.003103 -0.000001 167.969569 21.598918 -164.528301 -40.861743 -0.694125 9.222638 78.509295 -4.662506 7.452225 21.454558 -0.003110 -0.000018 8.594706 -1.463326 0.012146 7.179743 -2.924603 -0.066334 6.861203 -2.924833 -0.048637 -12.459740 -12.395830 -8.842669 -16.022189 16.913896 -18.476336 -170.216251 -75.526005 -11.490099 -23.626285 51.245632 11.631134 -37.472911 -15.411775 1.420474 7.264438 -2.819846 29.047954 -154.452311 67.691027 27.754540 2.169435 -57.653873 -17.519946 -24.499523 15.363828 -1.182990 7.555702 -1.064318 -13.334414 
-55.154202 90.242073 32.285480 94.337261 1.964023 98.843772 175.305001 -5.296395 178.876330 -16.063586 -4.090059 -3.238320 73.385670 0.437218 -6.464382 21.454551 0.003080 -0.000000 166.865674 18.092000 -164.644756 -46.304291 -0.836474 6.642383 80.051224 -2.965109 7.175733 21.454553 -0.003106 -0.000019 8.600254 -1.440341 -0.239870 7.197016 -2.863029 -0.568867 6.878497 -2.866291 -0.551517 -11.700358 -11.734820 -8.724027 -15.930976 16.871559 -18.068596 -171.726733 -76.132717 -9.947782 -23.343041 53.189723 10.540707 -40.150721 -15.907157 1.520926 7.501014 -2.619773 25.645624 -154.711489 67.832446 27.483179 2.505398 -58.821828 -19.211586 -24.003587 15.389171 -1.177022 7.728603 -4.893513 -17.525910 
-54.586460 90.429337 31.715981 93.934820 2.371453 98.874057 175.630023 -5.236796 178.362153 -15.460470 -3.826651 -3.039461 72.780290 0.385915 -6.065060 21.454555 0.003101 0.000001 167.115318 14.520285 -165.295045 -49.044785 0.068059 4.779929 81.396109 -1.633274 7.605496 21.454557 -0.003115 -0.000017 8.580562 -1.419066 -0.374435 7.160707 -2.812334 -0.836026 6.842215 -2.817182 -0.819008 -10.741071 -11.167916 -8.521288 -16.062932 16.965049 -17.684893 -173.057569 -76.422290 -8.589691 -23.345353 54.502731 10.051172 -42.404283 -16.274333 1.606049 7.725382 -1.490367 27.975736 -155.102586 68.009730 27.074595 3.453300 -59.437344 -20.234318 -24.223413 15.544559 -1.190216 8.262645 -8.966850 -18.063697 
-53.903931 90.573776 31.253611 94.042211 2.732929 98.743068 176.034165 -4.573591 179.109772 -14.905510 -3.862732 -3.666741 72.335125 0.918755 -5.752519 21.454551 0.003097 0.000001 168.849953 11.482703 -165.910923 -47.686414 1.162987 3.173756 81.467600 -0.381541 8.217944 21.454560 -0.003112 -0.000016 8.515210 -1.473979 -0.423004 7.031795 -2.919642 -0.934872 6.713274 -2.925086 -0.917210 -9.638255 -10.846452 -8.256171 -16.317757 17.308411 -17.414483 -173.226356 -76.710203 -8.419212 -23.955724 55.469237 10.009880 -43.974677 -16.551553 1.668814 7.506491 -0.207694 33.308176 -155.482699 68.218297 26.676854 4.368557 -59.522537 -21.224007 -24.484478 15.565506 -1.195560 8.274572 -12.391131 -15.545010 
-53.146870 90.620422 30.830420 94.680472 2.929152 98.476759 175.998361 -3.458205 -179.456500 -15.097373 -4.334141 -4.711695 72.140820 1.788819 -5.389957 21.454557 0.003102 0.000002 172.022604 9.017589 -166.759560 -41.527120 2.144143 3.262109 81.120251 -0.995916 5.897234 21.454557 -0.003112 -0.000019 8.400940 -1.591053 -0.328711 6.801969 -3.160128 -0.750403 6.483377 -3.164454 -0.731285 -8.309300 -10.714483 -8.158390 -16.688628 17.484091 -17.307611 -173.774069 -76.894031 -7.861432 -24.807797 55.927215 10.362332 -44.960342 -16.695165 1.707044 7.149711 1.196433 40.124923 -155.534322 68.490774 26.617442 5.142715 -59.314900 -22.331288 -24.709283 15.328823 -1.184014 7.874641 -13.907007 -11.292272 
-52.360989 90.734810 30.413759 95.073003 3.177053 98.195977 175.793360 -2.625603 -178.099600 -15.666405 -4.911618 -5.673723 72.323480 2.638549 -4.974013 21.454553 0.003092 0.000002 176.000588 6.935698 -166.958824 -33.528193 1.374413 7.581123 84.813580 -4.525999 4.145333 21.454562 -0.003103 -0.000018 8.320919 -1.598328 -0.086295 6.635236 -3.189140 -0.263916 6.316603 -3.190527 -0.244628 -7.298811 -10.987054 -8.315602 -17.104522 17.717842 -17.614710 -174.270665 -77.199504 -7.357189 -26.318064 56.333542 10.262114 -45.305406 -16.947895 1.733930 6.467768 2.390783 46.690815 -155.091589 68.845664 27.066612 5.693063 -59.301164 -22.961016 -25.358402 15.376023 -1.197302 7.510362 -13.432850 -9.784116 
-51.629059 90.829170 29.939240 94.941439 3.702789 98.276361 175.024444 -2.289801 -177.461128 -17.599622 -5.107809 -5.935371 72.804147 2.947084 -4.688521 21.454550 0.003084 -0.000001 179.883059 5.899989 -165.879217 -26.684939 0.675393 8.125957 86.879152 -4.882364 4.440008 21.454558 -0.003113 -0.000016 8.361839 -1.359907 0.144892 6.710193 -2.725922 0.210985 6.391712 -2.724469 0.227464 -6.817812 -12.177562 -8.409731 -17.390889 18.252277 -18.208186 -175.778716 -76.744620 -5.814095 -27.331593 56.433205 9.725272 -45.393413 -17.204307 1.753479 6.100544 2.905706 50.758202 -155.022386 69.495413 27.123076 5.085112 -58.770452 -24.090431 -26.309201 15.274362 -1.206465 7.747268 -10.616174 -9.755161 
-50.965549 90.743523 29.335510 93.949204 4.060613 98.822974 172.516986 -2.673998 -178.310503 -22.148225 -4.488946 -4.961267 73.552443 2.309968 -4.533051 21.454553 0.003087 -0.000001 -178.159897 5.440591 -166.778494 -23.053161 2.320931 8.584540 86.576104 -5.276860 4.081344 21.454555 -0.003112 -0.000017 8.400028 -0.830493 0.318210 6.783648 -1.678214 0.587390 6.465411 -1.674491 0.597516 -6.571804 -12.980699 -8.598432 -17.748404 18.046965 -18.557513 -176.870904 -76.195241 -4.692529 -28.188961 56.715736 9.256960 -44.237718 -17.087730 1.711724 5.351762 1.122577 50.838812 -155.466225 69.896037 26.656253 3.442066 -57.424563 -25.031392 -27.276012 15.109055 -1.212512 7.565961 -5.952982 -11.260499 
-50.437511 90.649727 28.622101 92.853949 4.454448 99.325642 169.636436 -3.736503 179.611777 -27.072227 -4.067421 -3.174707 72.721946 1.206851 -3.817019 21.454551 0.003089 0.000001 -177.295564 5.315395 -167.781521 -21.365856 4.433516 9.174611 85.500247 -5.810304 3.432303 21.454558 -0.003113 -0.000019 8.525113 -0.196034 0.466399 7.035740 -0.420042 0.920059 6.717684 -0.414354 0.922592 -6.952367 -13.877230 -8.684223 -17.632420 17.700929 -18.742567 -178.176495 -75.561119 -3.349700 -29.010453 57.540362 8.165264 -42.398799 -17.137358 1.662465 5.037950 -1.397058 48.061067 -156.462012 70.101688 25.625328 0.813615 -55.539868 -24.458243 -28.404827 15.433477 -1.253451 7.797870 -2.290888 -13.802261 
-50.033760 90.595543 27.815210 92.357114 3.953727 99.304284 166.006546 -5.172504 175.683967 -31.960613 -3.635278 0.011334 71.028394 -1.518609 -4.890191 21.454557 0.003097 0.000000 -178.139530 5.344399 -168.340066 -20.937533 4.835969 9.389750 84.924305 -5.937502 3.451201 21.454558 -0.003101 -0.000015 8.445715 0.168182 0.543585 6.880070 0.303781 1.096145 6.562033 0.310536 1.094303 -7.411187 -14.040367 -8.468311 -16.876004 16.978004 -18.199433 -179.233152 -75.489389 -2.268191 -28.469832 58.762016 7.921967 -40.128878 -17.031917 1.593711 5.172882 -3.452729 43.252808 -158.179586 70.764100 23.842905 -1.325456 -54.249648 -23.108009 -29.852838 15.960149 -1.314507 7.611596 0.133751 -16.314983 
